<svg id="Layer_1" data-name="Layer 1" xmlns="http://www.w3.org/2000/svg" viewBox="0 0 1537.86 510.51"><defs><style>.cls-1{fill:#007ddb;}</style></defs><title>UE-Logo-Web</title><polygon points="70.88 134.41 53.99 139.33 53.99 140.23 70.88 145.15 70.88 134.41"/><path d="M248.34,322.67c-3.36,0-4.67.49-5.41,1.31-.49.57-.66,1.39-.66,4.59v9.51h12.3v-9.51c0-3.2-.16-4.1-.66-4.59C253.1,323.08,251.7,322.67,248.34,322.67Z" transform="translate(-191.07 -128.74)"/><path d="M455.56,457.87c0,40.36-3.11,51.54-8.69,57.12-5,5-14.9,6.83-36,6.83h-41.6c-21.11,0-31.05-1.86-36-6.83-5.59-5.59-8.69-16.77-8.69-57.12V198.35H191.07V458.49c0,96.24,12.42,125.42,36,149C247,627.37,271.79,633,327.66,633H452.45c55.88,0,80.71-5.59,100.58-25.46,23.59-23.6,36-52.77,36-149V198.35H455.56ZM286.63,499.92c0,7.38-.74,10.66-3.36,13.28-3.12,3.12-7,4.76-19.68,4.76H229.24V500.33h34.27c5.33,0,6.8-.41,7.54-1.15s.9-2,.9-4.76v-5.49c0-2.79-.25-4.1-.9-4.76s-2.21-1.15-7.54-1.15H229.24V465.39h34.35c12.71,0,16.56,1.64,19.68,4.76,2.62,2.62,3.36,5.9,3.36,13.28v16.49Zm0-45.5H229.24V436.79h44.19V410.06h13.2Zm0-57.39H242.68v16.81H229.23V362.19h13.45v17.22h43.95Zm0-75.26a110,110,0,0,1-12.71,1c-4.26.16-5.08.66-5.9,1.56s-1.07,1.56-1.07,5.17v8.61h19.68v17.63H229.24V319.07c0-5.74.74-8.94,2.95-11.15,2.54-2.54,5.41-3.77,13.36-3.77,10.66,0,13.86,3.2,15.17,9.84h.16c1.31-5.74,3.2-9,11.48-9.26,5.58-.16,11.15-.57,14.27-.9Zm0-65.68-12.38,3.61v17.63l12.38,3.53v17.63L234.4,281.11C230.05,279.63,229,279,229,275v-14.1c0-3.94,1.15-4.67,5.41-6.07l52.23-17.38Z" transform="translate(-191.07 -128.74)"/><path class="cls-1" d="M1717.71,550.33c.6,17.29-47.29,15.23-55.89,15.1-248.48-3.84-647.27,20.07-926.73,69.86-74.15,13.21-56.28-10.06-3.69-19.07,235.85-40.37,603.37-84,916.43-84C1681,532.19,1717.16,534.43,1717.71,550.33ZM1091.25,359.18c1.39-5.18,3.48-13,2.5-27.75-.2-12.62-5.38-23.88-12.59-27.39a10.91,10.91,0,0,0-11.83,1.33l-1.25.95-.13,1.56c-.61,7.68-.83,9.6-1.68,12.27-16,43.47-62.55,105.14-90.1,141.08-8.19-21.77-5.35-59.82-3.23-88.2.88-11.77,1.64-21.94,1.39-28.55-.51-12.19-13.78-18-18.09-19.52-.68-.31-1.29-.62-1.88-.92a18.06,18.06,0,0,0-8.65-2.49l-.39,0a30.64,30.64,0,0,1-3.34,0c-4.3-.13-9.17-.28-12,2.71a7,7,0,0,0-1.75,5.61c3,27.6,2.85,54.14,2.74,70,0,2,0,3.81,0,5.38-6.44,4.35-12.54,11.82-19.26,20.06-5.41,6.63-11,13.49-17.26,19.32l-.31.33c-24.67,29.84-88,70.6-126.83,75.61-8.76,1.2-15.42-.09-20.35-4-9.54-7.55-11.89-24.55-13.49-41.31-2-20.59-1.08-50.88,14-78.92,23-7.07,59.45-13,71.59-15,4.62-.75,41.29-9.8,59.1-17.84,4.69-1.77,7.66-6.47,9.63-9.59.45-.71.92-1.45,1.17-1.76l.36-.44,1.45-3.75,0-.46a13.33,13.33,0,0,0-2.23-9.47l-.55-.75-.85-.37a27.56,27.56,0,0,0-14-2.25l-97.28,16L762.36,352c6.87-18.28,18.28-42.77,27.61-62.8,12.36-26.54,15.47-33.58,15.2-36.43-.71-7.52-6.48-11.45-11.56-14.51,16.86-3.38,42-5.29,51.12-6,1.65-.12,2.82-.22,3.19-.26l91.67-2.88h.22c18.5-1.76,22.4-8.09,24.49-11.49a8.08,8.08,0,0,1,.59-.89l1.26-1.52-.66-1.86c-2.19-6.2-9.13-10.6-20.63-13.09C925.22,196,793.64,190.35,737.69,205c-6.1,1.84-11.16,3.16-15.23,4.22-9.81,2.55-15.21,3.95-19,8.51l-.92,1.12.14,1.44c1,10.13,15.8,34.75,31.34,33.27,3-.28,7.47-2.56,14.52-6.29a100.38,100.38,0,0,1,10.06-4.9l.2,2.13c-12,25.92-24.47,54.75-37.14,85.7a81.77,81.77,0,0,0-4.5,12.18c-.72,2.32-1.47,4.72-2.33,7.13l-.08.26c-.4,1.47-.87,3-1.35,4.47s-1,3.31-1.53,5.07l-7.15,1.73-.41.13a45.88,45.88,0,0,1-11.42,2.3c-1.42.13-4.83.55-9.52,1.12-10.33,1.25-25.93,3.15-40.18,4.5l-.82.08-.7.43c-1.86,1.16-3.08,3.5-3.45,6.6a12.23,12.23,0,0,0-.18,4.06l.05.55.22.5c7.35,17.12,20.39,26.51,34.88,25.14a101.88,101.88,0,0,0,12.41-2.79,106.65,106.65,0,0,1,11.3-2.6,9.8,9.8,0,0,1,3.19.07c-5.73,19.54-8.29,54.07-6.66,71.2,5,53.08,43.44,86.84,93.38,82.1l8.89-.85c42.93-4.08,100.24-54.89,137.33-102.27,5,34.27,19.17,78.93,39.89,80.46a4,4,0,0,0,.49,0c8.26-.78,29.68-27.09,63.7-78.22,25.18-37.84,51.67-81.89,53.82-93.25Zm609.12-31.6-.38,0-6.81-.09c-13.8.8-19.24-8.75-19.56-12.15-.28-3,2-6.28,6-11.85,1.83-2.54,4.9-6.8,5.1-8.17-.12-1-5.35-2.1-8-1.9-13.74,1.11-22.27,4.38-26.8,10.22s-5.56,14.95-3.22,28.63l0,.26c.25,2.64,3.26,12.68,6.73,24.3,7.17,23.94,17,56.74,18.85,76.45,1.11,27-16.54,44.94-46.29,47.76-1.28.12-2.57.21-3.89.28-13.55.57-34.12-4.37-47.33-16.55-7-6.47-10.9-14.24-11.23-22.48-.36-3.75,7.09-15.14,14.33-18.7l.35-.15a30,30,0,0,1,13.47-2.08l.47,0,.44.17c4.21,1.61,5.69,3,6.15,7.81l0,.37c0,3.23-2.39,6.12-4.67,8.92-1.14,1.4-3.06,3.75-3.12,4.64.43,4.48,9.79,7.89,12.37,7.64,4.26-.41,17.88-3.56,24.29-12.47,3.35-4.66,4.28-10.34,2.76-16.9l-.13-.55.06-.57c.37-3.92-6.46-29.67-12-50.36-7.67-28.9-12.4-47.08-12.16-52.45a63.34,63.34,0,0,1,.26-11c-16.67,5.19-34.78,11.31-47.47,16.92-31.49,15-44,84.3-51.4,125.69-2.42,13.45-4.33,24.07-6.3,29.31l-.28.75-.58.56a11,11,0,0,1-6.72,3.06,12.58,12.58,0,0,1-3-.08l-.55-.13-3.33-1.06c-8-3.1-14.42-15.17-18-25.33-15.84,18.42-33.58,33.27-45.07,34.37-20.65,2-45.32-12.95-54.48-24-7.66-9.19-10.86-30.65-10.7-43.08-.37-4.52.5-16.57,2.81-38.94.76-8.11,1.84-17,3.57-29.42-22.89,29.16-51.19,73.77-82.3,129.81l-.37.54c-2.3,2.79-6.06,3.47-9.09,3.76-9.35.89-30.06-8-33.67-19.15-10.46,9.12-25,20.69-42.2,29.73q-26.32,13-47.62,15c-14.11,1.34-26.5-.94-37.09-6.85-21.62-12.06-31.33-37.75-33.07-56.08-5.19-54.64,50-157,96.89-161.48,3.13-.3,5.61,1.24,7.6,2.47a12.87,12.87,0,0,0,2.42,1.29c.65-2.05,2.4-3.19,5.24-3.46,12.83-1.22,34.61,16.9,35.57,27,1.67,17.57-7.5,36.58-14.19,50.45-1.1,2.28-2.14,4.44-3.06,6.44-3,6.55-51.69,68.42-64.24,69.61-6,.57-15.39-4.35-23.31-9.48a94,94,0,0,0-1.39,20.61c.71,7.51,5,31.82,29.44,29.5,20.3-1.93,65.73-32.71,96-57.27,4.12-20.38,10.34-50.71,19.62-95.61l2.27-11c1-9.59,13.64-10,19.76-10.25,1,0,1.88-.06,2.54-.13,2.82-.27,20.3,4.52,24.41,10.6l.86,1.28L1306.4,366,1342.12,328l4.89-4.84c2.57-2.23,5.94-5.79,8.91-8.94l.73-.8c4.66-7.53,14.56-20.37,28.57-21.7,9.9-.94,34.24,2.94,35.68,18.15.11,1.19-.16,2.54-2.93,14.49-5.63,24.28-18.8,81.14-16.22,108.31,1.21,12.75,5,25.37,10.72,24.82,4.63-.44,13.2-5.8,17.81-8.67.94-.65,2-1.39,3.19-2.16,3-2,6.12-4.09,9.44-6.68a25.14,25.14,0,0,0,5.62-5.08,62.29,62.29,0,0,1,5-5.37c1.82-1.76,9.59-12,17.08-21.94,2.29-8.23,5.06-16.2,7.59-23.45,3.72-10.67,7.24-20.76,6.78-25.63-.27-1.22-3.93-4.54-6.61-7-7.63-6.91-19.17-17.35-20.63-32.77l-.08-.84.3-.79c2.3-6,11.57-9.41,27.75-15a236.51,236.51,0,0,0,22.35-8.58c.3-.57.61-1.15.93-1.73a39.81,39.81,0,0,0,2.25-4.59c1.93-4.43,26.91-82.29,37.38-110.23,17.84-47.59,22.2-48,24.81-48.26,6.29-.6,27.56,15,28.45,24.36l.08.82-.29.77-47.27,125.71,1.27-.27c1.57-.33,3.25-.73,4.84-1.11a57.31,57.31,0,0,1,6.84-1.4c2.1-.2,16.28-3,28.79-5.48,16.83-3.33,27.21-5.37,29.5-5.58,3.13-.3,7.28-.95,11.67-1.65,9.77-1.55,21.52-3.38,31.32-2.89,20-1.86,58,9.39,60.26,33.42C1729.44,300.53,1716.07,326.09,1700.37,327.58ZM1126.68,407.3c18.73-11.82,56.33-59,60-83.07l-4,.38c-10.81,6.68-32.88,30.27-48.64,62.41a45.63,45.63,0,0,0-3.82,9.35A42.94,42.94,0,0,0,1126.68,407.3Z" transform="translate(-191.07 -128.74)"/></svg>